<?xml version="1.0" standalone="no"?><!DOCTYPE svg PUBLIC "-//W3C//DTD SVG 1.1//EN" "http://www.w3.org/Graphics/SVG/1.1/DTD/svg11.dtd"><svg t="1546482733972" class="icon" style="" viewBox="0 0 1294 1024" version="1.1" xmlns="http://www.w3.org/2000/svg" p-id="3506" xmlns:xlink="http://www.w3.org/1999/xlink" width="161.75" height="128"><defs><style type="text/css"></style></defs><path d="M1089.507185 0H203.322343c-38.339405 0-68.167828 29.826885-68.167828 68.167828v136.337194c0 38.339405 29.828423 68.167828 68.167828 68.167828h886.184842c38.350171 0 68.167828-29.828423 68.167828-68.167828V68.167828c0-38.342481-29.817658-68.167828-68.167828-68.167828zM663.458259 204.503484V68.167828h426.048926v136.337194H663.458259zM1089.507185 374.926131H203.322343c-38.339405 0-68.167828 29.822271-68.167828 68.167828v136.337194c0 38.339405 29.828423 68.167828 68.167828 68.167828h886.184842c38.350171 0 68.167828-29.829961 68.167828-68.167828v-136.337194c0-38.344019-29.817658-68.167828-68.167828-68.167828zM510.082184 579.432691v-136.337194h579.425001v136.337194H510.082184z m579.425001 170.421108H203.322343c-38.339405 0-68.167828 29.823809-68.167828 68.167828v136.332581c0 38.347095 29.828423 68.16629 68.167828 68.16629h886.184842c38.350171 0 68.167828-29.820733 68.167828-68.16629v-136.332581c0-38.350171-29.817658-68.167828-68.167828-68.167828z m-272.666699 204.500409v-136.332581h272.666699v136.332581H816.840486z m0 0" p-id="3507" fill="#df5745"></path></svg>